<?xml version="1.0" encoding="UTF-8"?>
<svg width="119px" height="41px" viewBox="0 0 119 41" version="1.1" xmlns="http://www.w3.org/2000/svg" xmlns:xlink="http://www.w3.org/1999/xlink">
    <!-- Generator: sketchtool 55.2 (78181) - https://sketchapp.com -->
    <title>540DD76D-072B-48A8-995D-E66998C2795D</title>
    <desc>Created with sketchtool.</desc>
    <g id="Page-1" stroke="none" stroke-width="1" fill="none" fill-rule="evenodd">
        <g id="Extra-large:-Desktops---12-col" transform="translate(-165.000000, -43.000000)" fill="#FFFFFF">
            <g id="ic_logo_navbar" transform="translate(165.000000, 43.000000)">
                <g id="Group">
                    <path d="M46.4540403,28.0653705 C45.1860403,28.0653705 43.9480403,27.7853705 42.9610403,27.2763705 C41.7200403,26.6423705 40.9410403,25.3803705 40.8830403,23.8993705 C40.8130403,22.4473705 41.4580403,21.1673705 42.5820403,20.4763705 C43.5640403,19.9073705 44.8120403,19.6243705 46.3080403,19.6243705 L52.0510403,19.6243705 L52.0510403,24.8823705 C52.0510403,27.7523705 48.1380403,28.0653705 46.4540403,28.0653705 L46.4540403,28.0653705 Z M55.2230403,27.8053705 C54.0370403,27.8053705 53.7860403,26.7843705 53.7860403,25.9233705 L53.7860403,15.4823705 C53.7860403,11.7213705 50.0190403,10.0083705 46.5150403,10.0083705 C43.8660403,10.0083705 41.4910403,10.9263705 40.1530403,12.4673705 L39.7160403,12.9713705 L41.2020403,13.9133705 L41.5260403,13.5633705 C42.5400403,12.4533705 44.4790403,11.7633705 46.5830403,11.7633705 C49.3090403,11.7633705 52.0510403,12.9183705 52.0510403,15.4823705 L52.0510403,17.9203705 L46.3080403,17.9203705 C44.4080403,17.9203705 42.8650403,18.2713705 41.7010403,18.9683705 C40.0100403,19.9863705 39.0460403,21.8433705 39.1210403,23.9323705 C39.1950403,26.0483705 40.3730403,27.9333705 42.1750403,28.8473705 C43.3900403,29.4733705 44.8660403,29.8063705 46.4540403,29.8063705 C48.1070403,29.8063705 50.8820403,29.5503705 52.5160403,28.0163705 C53.0230403,29.0123705 53.9820403,29.5803705 55.2230403,29.5803705 L55.7960403,29.5803705 L55.7960403,27.8053705 L55.2230403,27.8053705 Z" id="Fill-2"></path>
                    <path d="M70.3483403,20.9240705 C68.8723403,19.6270705 66.5353403,19.3190705 64.6493403,19.0740705 L64.0213403,19.0060705 C62.6913403,18.8520705 61.1803403,18.6830705 60.1813403,18.0580705 C59.3583403,17.4990705 58.9463403,16.6170705 58.9463403,15.4440705 C58.9463403,13.2640705 60.9503403,12.3360705 62.1263403,11.9830705 C63.7043403,11.5530705 65.4713403,11.5440705 66.9543403,11.9830705 C67.7353403,12.1960705 68.8093403,12.6370705 69.5253403,13.5300705 L69.8433403,13.9360705 L71.3243403,12.9850705 L70.9413403,12.4920705 C70.1533403,11.4930705 68.9653403,10.7620705 67.4153403,10.3250705 C65.5703403,9.77407054 63.4683403,9.77407054 61.6303403,10.3250705 C58.8173403,11.1640705 57.2043403,13.0130705 57.2043403,15.4080705 C57.2043403,19.8890705 60.9813403,20.3640705 64.0143403,20.7530705 L64.6423403,20.8350705 C67.7563403,21.2360705 70.1463403,21.7600705 70.1463403,24.4460705 C70.1773403,26.6210705 67.9443403,27.5110705 66.9883403,27.7890705 C65.7103403,28.1570705 63.6663403,28.1270705 61.9783403,27.7120705 C60.4143403,27.2900705 59.2903403,26.5490705 58.5473403,25.4550705 L58.2413403,25.0020705 L56.8013403,25.8930705 L57.1083403,26.3780705 C58.0483403,27.8760705 59.5873403,28.9280705 61.5283403,29.4120705 C62.5053403,29.6730705 63.5423403,29.8090705 64.6073403,29.8090705 C65.6353403,29.8090705 66.6253403,29.6830705 67.4433403,29.4440705 C70.2833403,28.6460705 71.9123403,26.8360705 71.9123403,24.4760705 C71.9123403,22.9650705 71.4143403,21.8400705 70.3483403,20.9240705" id="Fill-3"></path>
                    <path d="M86.3009403,20.9240705 C84.8389403,19.6270705 82.4939403,19.3190705 80.6049403,19.0740705 L79.9839403,19.0060705 C78.6509403,18.8520705 77.1359403,18.6830705 76.1359403,18.0580705 C75.3169403,17.4990705 74.9019403,16.6170705 74.9019403,15.4440705 C74.9019403,13.2640705 76.9029403,12.3360705 78.0909403,11.9830705 C79.6649403,11.5530705 81.4389403,11.5440705 82.9139403,11.9830705 C83.6949403,12.1960705 84.7719403,12.6370705 85.4809403,13.5300705 L85.8029403,13.9360705 L87.2819403,12.9850705 L86.8959403,12.4920705 C86.1089403,11.4930705 84.9249403,10.7620705 83.3749403,10.3250705 C81.5269403,9.77407054 79.4339403,9.77407054 77.5869403,10.3250705 C74.7769403,11.1640705 73.1639403,13.0130705 73.1639403,15.4080705 C73.1639403,19.8890705 76.9379403,20.3640705 79.9729403,20.7530705 L80.6049403,20.8350705 C83.7149403,21.2360705 86.0989403,21.7600705 86.0989403,24.4460705 C86.1369403,26.6210705 83.9029403,27.5110705 82.9409403,27.7890705 C81.6699403,28.1570705 79.6259403,28.1270705 77.9339403,27.7120705 C76.3699403,27.2900705 75.2449403,26.5490705 74.5039403,25.4550705 L74.1959403,25.0020705 L72.7609403,25.8930705 L73.0689403,26.3780705 C74.0079403,27.8760705 75.5469403,28.9280705 77.4869403,29.4120705 C78.4689403,29.6730705 79.5049403,29.8090705 80.5669403,29.8090705 C81.5999403,29.8090705 82.5809403,29.6830705 83.4029403,29.4440705 C86.2429403,28.6460705 87.8689403,26.8360705 87.8689403,24.4760705 C87.8689403,22.9650705 87.3709403,21.8400705 86.3009403,20.9240705" id="Fill-4"></path>
                    <polygon id="Fill-5" points="90.6199403 29.5803705 92.3519403 29.5803705 92.3519403 10.0033705 90.6199403 10.0033705"></polygon>
                    <path d="M107.75284,20.9240705 C106.28184,19.6270705 103.94184,19.3190705 102.05484,19.0740705 L101.42984,19.0060705 C100.09984,18.8520705 98.5868403,18.6830705 97.5898403,18.0580705 C96.7668403,17.4990705 96.3508403,16.6170705 96.3508403,15.4440705 C96.3508403,13.2620705 98.3518403,12.3360705 99.5398403,11.9830705 C101.11384,11.5530705 102.88384,11.5530705 104.36084,11.9830705 C105.14384,12.1960705 106.22184,12.6370705 106.91984,13.5300705 L107.24684,13.9360705 L108.72984,12.9850705 L108.33984,12.4920705 C107.55484,11.4930705 106.37384,10.7620705 104.82384,10.3250705 C102.97984,9.77407054 100.87984,9.77407054 99.0358403,10.3250705 C96.2238403,11.1640705 94.6128403,13.0120705 94.6128403,15.4080705 C94.6128403,19.8890705 98.3938403,20.3640705 101.42284,20.7530705 L102.04984,20.8350705 C105.16484,21.2360705 107.55084,21.7600705 107.55084,24.4460705 C107.57984,26.6270705 105.35184,27.5110705 104.39384,27.7890705 C103.11884,28.1570705 101.07784,28.1300705 99.3878403,27.7120705 C97.8198403,27.2900705 96.7058403,26.5490705 95.9548403,25.4550705 L95.6468403,25.0020705 L94.2088403,25.8930705 L94.5178403,26.3780705 C95.4538403,27.8740705 96.9868403,28.9280705 98.9328403,29.4120705 C99.9158403,29.6730705 100.95184,29.8090705 102.01884,29.8090705 C103.04784,29.8090705 104.02984,29.6830705 104.85284,29.4440705 C107.69284,28.6460705 109.31784,26.8360705 109.31784,24.4760705 C109.31784,22.9690705 108.82084,21.8430705 107.75284,20.9240705" id="Fill-6"></path>
                    <path d="M117.93864,27.9182705 C115.96964,27.8602705 113.62664,27.1832705 113.62664,24.2892705 L113.62664,11.9652705 L118.26964,11.9652705 L118.26964,10.2262705 L113.62664,10.2262705 L113.62664,4.70527054 L111.85064,4.70527054 L111.85064,10.2262705 L111.84364,10.2262705 L111.84364,11.9652705 L111.85064,11.9652705 L111.85064,24.2892705 C111.85064,27.5522705 114.12064,29.5572705 117.90764,29.6522705 L118.49564,29.6692705 L118.49564,27.9322705 L117.93864,27.9182705 Z" id="Fill-7"></path>
                    <path d="M42.0746403,39.0189705 C42.0506403,38.9979705 42.0496403,38.9569705 42.0746403,38.9329705 L42.2246403,38.7399705 C42.2486403,38.7119705 42.2886403,38.7119705 42.3166403,38.7359705 C42.6006403,38.9569705 43.0506403,39.1839705 43.5536403,39.1839705 C44.2496403,39.1839705 44.6736403,38.8309705 44.6736403,38.2949705 C44.6736403,37.8719705 44.4336403,37.5599705 43.6386403,37.4579705 L43.4396403,37.4349705 C42.5926403,37.3249705 42.1946403,36.9179705 42.1946403,36.2879705 C42.1946403,35.5389705 42.7306403,35.0749705 43.5536403,35.0749705 C44.0326403,35.0749705 44.4876403,35.2189705 44.7866403,35.4369705 C44.8136403,35.4569705 44.8266403,35.4949705 44.7986403,35.5219705 L44.6736403,35.7209705 C44.6466403,35.7519705 44.6116403,35.7519705 44.5856403,35.7339705 C44.2416403,35.5219705 43.9046403,35.4149705 43.5296403,35.4149705 C42.9226403,35.4149705 42.5536403,35.7579705 42.5536403,36.2609705 C42.5536403,36.6969705 42.8366403,36.9879705 43.5726403,37.0789705 L43.7726403,37.1089705 C44.6466403,37.2229705 45.0356403,37.6299705 45.0356403,38.2719705 C45.0356403,39.0019705 44.5136403,39.5219705 43.5116403,39.5219705 C42.9426403,39.5219705 42.3776403,39.2819705 42.0746403,39.0189705" id="Fill-8"></path>
                    <path d="M48.4691403,35.2008705 C48.4691403,35.1628705 48.4901403,35.1358705 48.5281403,35.1358705 L48.7681403,35.1358705 C48.7991403,35.1358705 48.8281403,35.1628705 48.8281403,35.2008705 L48.8281403,39.3978705 C48.8281403,39.4318705 48.7991403,39.4638705 48.7681403,39.4638705 L48.5281403,39.4638705 C48.4901403,39.4638705 48.4691403,39.4318705 48.4691403,39.3978705 L48.4691403,35.2008705 Z" id="Fill-9"></path>
                    <path d="M52.2504403,39.0189705 C52.2284403,38.9979705 52.2284403,38.9569705 52.2464403,38.9329705 L52.3994403,38.7399705 C52.4274403,38.7119705 52.4654403,38.7119705 52.4914403,38.7359705 C52.7784403,38.9569705 53.2264403,39.1839705 53.7284403,39.1839705 C54.4214403,39.1839705 54.8524403,38.8309705 54.8524403,38.2949705 C54.8524403,37.8719705 54.6074403,37.5599705 53.8174403,37.4579705 L53.6124403,37.4349705 C52.7684403,37.3249705 52.3674403,36.9179705 52.3674403,36.2879705 C52.3674403,35.5389705 52.9054403,35.0749705 53.7284403,35.0749705 C54.2054403,35.0749705 54.6684403,35.2189705 54.9624403,35.4369705 C54.9954403,35.4569705 55.0024403,35.4949705 54.9744403,35.5219705 L54.8524403,35.7209705 C54.8244403,35.7519705 54.7904403,35.7519705 54.7604403,35.7339705 C54.4124403,35.5219705 54.0804403,35.4149705 53.7144403,35.4149705 C53.0904403,35.4149705 52.7284403,35.7579705 52.7284403,36.2609705 C52.7284403,36.6969705 53.0114403,36.9879705 53.7504403,37.0789705 L53.9444403,37.1089705 C54.8244403,37.2229705 55.2144403,37.6299705 55.2144403,38.2719705 C55.2144403,39.0019705 54.6854403,39.5219705 53.6874403,39.5219705 C53.1184403,39.5219705 52.5544403,39.2819705 52.2504403,39.0189705" id="Fill-10"></path>
                    <path d="M59.5206403,39.4643705 C59.4846403,39.4643705 59.4596403,39.4323705 59.4596403,39.3983705 L59.4596403,35.5193705 C59.4596403,35.4953705 59.4456403,35.4813705 59.4176403,35.4813705 L58.1726403,35.4813705 C58.1346403,35.4813705 58.1116403,35.4573705 58.1116403,35.4143705 L58.1116403,35.2013705 C58.1116403,35.1623705 58.1346403,35.1363705 58.1726403,35.1363705 L61.1016403,35.1363705 C61.1476403,35.1363705 61.1666403,35.1623705 61.1666403,35.2013705 L61.1666403,35.4143705 C61.1666403,35.4573705 61.1476403,35.4813705 61.1016403,35.4813705 L59.8596403,35.4813705 C59.8316403,35.4813705 59.8186403,35.4953705 59.8186403,35.5193705 L59.8186403,39.3983705 C59.8186403,39.4323705 59.7966403,39.4643705 59.7536403,39.4643705 L59.5206403,39.4643705 Z" id="Fill-11"></path>
                    <path d="M64.3214403,35.2008705 C64.3214403,35.1628705 64.3434403,35.1358705 64.3834403,35.1358705 L66.8554403,35.1358705 C66.8964403,35.1358705 66.9194403,35.1628705 66.9194403,35.2008705 L66.9194403,35.4148705 C66.9194403,35.4568705 66.8964403,35.4808705 66.8554403,35.4808705 L64.7204403,35.4808705 C64.6974403,35.4808705 64.6854403,35.4948705 64.6854403,35.5188705 L64.6854403,37.0578705 C64.6854403,37.0788705 64.6974403,37.0968705 64.7204403,37.0968705 L66.5614403,37.0968705 C66.5954403,37.0968705 66.6244403,37.1208705 66.6244403,37.1578705 L66.6244403,37.3788705 C66.6244403,37.4138705 66.5954403,37.4398705 66.5614403,37.4398705 L64.7204403,37.4398705 C64.6974403,37.4398705 64.6854403,37.4508705 64.6854403,37.4778705 L64.6854403,39.0778705 C64.6854403,39.1038705 64.6974403,39.1198705 64.7204403,39.1198705 L66.8554403,39.1198705 C66.8964403,39.1198705 66.9194403,39.1418705 66.9194403,39.1848705 L66.9194403,39.3978705 C66.9194403,39.4318705 66.8964403,39.4638705 66.8554403,39.4638705 L64.3834403,39.4638705 C64.3434403,39.4638705 64.3214403,39.4318705 64.3214403,39.3978705 L64.3214403,35.2008705 Z" id="Fill-12"></path>
                    <path d="M70.2704403,35.2008705 C70.2704403,35.1628705 70.2944403,35.1358705 70.3344403,35.1358705 L70.5744403,35.1358705 C70.6214403,35.1358705 70.6534403,35.1588705 70.6704403,35.2008705 L72.0774403,38.2948705 L72.1004403,38.2948705 L73.4764403,35.2008705 C73.4944403,35.1588705 73.5284403,35.1358705 73.5654403,35.1358705 L73.8154403,35.1358705 C73.8524403,35.1358705 73.8764403,35.1628705 73.8764403,35.2008705 L73.8764403,39.3978705 C73.8764403,39.4318705 73.8524403,39.4638705 73.8154403,39.4638705 L73.5784403,39.4638705 C73.5374403,39.4638705 73.5154403,39.4318705 73.5154403,39.3978705 L73.5154403,36.0098705 L73.4944403,36.0098705 L72.2464403,38.7558705 C72.2234403,38.8078705 72.1964403,38.8238705 72.1314403,38.8238705 L72.0074403,38.8238705 C71.9514403,38.8238705 71.9234403,38.8078705 71.8954403,38.7558705 L70.6534403,36.0098705 L70.6354403,36.0098705 L70.6354403,39.3978705 C70.6354403,39.4318705 70.6074403,39.4638705 70.5684403,39.4638705 L70.3344403,39.4638705 C70.2944403,39.4638705 70.2704403,39.4318705 70.2704403,39.3978705 L70.2704403,35.2008705 Z" id="Fill-13"></path>
                    <path d="M79.6036403,37.9853705 L78.7936403,35.7213705 L78.7776403,35.7213705 L77.9636403,37.9853705 L79.6036403,37.9853705 Z M78.5986403,35.2013705 C78.6106403,35.1623705 78.6336403,35.1363705 78.6746403,35.1363705 L78.9056403,35.1363705 C78.9446403,35.1363705 78.9686403,35.1623705 78.9796403,35.2013705 L80.4776403,39.3983705 C80.4896403,39.4323705 80.4756403,39.4643705 80.4376403,39.4643705 L80.1906403,39.4643705 C80.1436403,39.4643705 80.1186403,39.4473705 80.1036403,39.3983705 L79.7256403,38.3363705 L77.8386403,38.3363705 L77.4586403,39.3983705 C77.4416403,39.4473705 77.4186403,39.4643705 77.3776403,39.4643705 L77.1256403,39.4643705 C77.0906403,39.4643705 77.0696403,39.4323705 77.0836403,39.3983705 L78.5986403,35.2013705 Z" id="Fill-14"></path>
                    <path d="M83.5050403,39.0189705 C83.4810403,38.9979705 83.4700403,38.9569705 83.4980403,38.9329705 L83.6550403,38.7399705 C83.6730403,38.7119705 83.7140403,38.7119705 83.7430403,38.7359705 C84.0270403,38.9569705 84.4780403,39.1839705 84.9790403,39.1839705 C85.6760403,39.1839705 86.0990403,38.8309705 86.0990403,38.2949705 C86.0990403,37.8719705 85.8580403,37.5599705 85.0630403,37.4579705 L84.8670403,37.4349705 C84.0200403,37.3249705 83.6200403,36.9179705 83.6200403,36.2879705 C83.6200403,35.5389705 84.1540403,35.0749705 84.9790403,35.0749705 C85.4590403,35.0749705 85.9150403,35.2189705 86.2160403,35.4369705 C86.2440403,35.4569705 86.2540403,35.4949705 86.2260403,35.5219705 L86.0990403,35.7209705 C86.0760403,35.7519705 86.0420403,35.7519705 86.0140403,35.7339705 C85.6660403,35.5219705 85.3290403,35.4149705 84.9630403,35.4149705 C84.3440403,35.4149705 83.9820403,35.7579705 83.9820403,36.2609705 C83.9820403,36.6969705 84.2600403,36.9879705 84.9950403,37.0789705 L85.1980403,37.1089705 C86.0760403,37.2229705 86.4630403,37.6299705 86.4630403,38.2719705 C86.4630403,39.0019705 85.9430403,39.5219705 84.9350403,39.5219705 C84.3700403,39.5219705 83.8040403,39.2819705 83.5050403,39.0189705" id="Fill-15"></path>
                    <path d="M20.4855403,33.4225705 C21.8475403,30.9435705 21.3535403,29.0585705 21.0875403,28.3835705 C21.0165403,28.2235705 20.9645403,28.1085705 20.9645403,28.1085705 C18.7125403,31.0915705 1.51054035,33.2115705 1.51054035,33.2115705 C-0.0714596547,35.3595705 -0.974459655,43.6155705 10.6715403,40.0005705 C16.4375403,38.2035705 19.1845403,35.6685705 20.4855403,33.4225705" id="Fill-16"></path>
                    <path d="M1.77504035,33.1785705 C1.62304035,33.2215705 1.52704035,33.2595705 1.51104035,33.2815705 C0.910040345,34.0985705 0.408040345,35.7905705 0.649040345,37.3805705 C0.787040345,36.4015705 1.12604035,35.5255705 1.51104035,35.0055705 C1.77504035,34.6435705 20.4460403,31.2645705 20.9650403,28.1085705 C18.8750403,30.8735705 3.92904035,32.8975705 1.77504035,33.1785705" id="Fill-17"></path>
                    <path d="M31.4960403,27.1623705 C31.5290403,27.1263705 31.5670403,27.0943705 31.5980403,27.0593705 C31.6900403,26.9553705 31.7770403,26.8423705 31.8630403,26.7323705 C31.9300403,26.6483705 32.0050403,26.5563705 32.0640403,26.4703705 C32.1760403,26.3043705 32.2770403,26.1343705 32.3500403,25.9543705 C33.1080403,24.3563705 32.2700403,23.1893705 32.2700403,23.1893705 C27.9820403,17.0283705 21.3190403,9.15437054 14.2460403,2.69737054 C8.46504035,-2.57762946 3.64604035,1.51037054 3.64604035,1.51037054 C2.96904035,2.45737054 2.20104035,2.10637054 0.220040345,9.03037054 C-1.93095965,16.5623705 12.2490403,18.3143705 18.3180403,21.4313705 C22.3020403,23.4703705 23.0710403,28.0113705 23.1270403,30.8983705 C23.1400403,30.8933705 29.0140403,29.6833705 31.4960403,27.1623705" id="Fill-18"></path>
                    <path d="M19.4806403,21.6406705 C13.8456403,17.7936705 0.000419182567,14.2736705 3.07864035,7.07167054 C5.90764035,0.448670544 6.63164035,0.898670544 7.42164035,0.0446705444 C7.42164035,0.0446705444 7.42664035,0.0376705444 7.42964035,0.0376705444 C5.12664035,0.258670544 3.64664035,1.51067054 3.64664035,1.51067054 C2.96964035,2.45767054 2.20064035,2.10567054 0.220640345,9.02967054 C-1.93135965,16.5626705 12.2496403,18.3146705 18.3176403,21.4306705 C22.3016403,23.4706705 23.0716403,28.0116705 23.1266403,30.8976705 C23.3186403,28.0286705 22.8736403,23.9596705 19.4806403,21.6406705" id="Fill-19"></path>
                </g>
            </g>
        </g>
    </g>
</svg>